Coordinates
nRows=4
nColumns=38

# SIMM Motion File Header:
name Coordinates
datacolumns 38
datarows 4
otherdata 1
range 0.45550000000000002000 0.45850000000000002000

Units are S.I. units (second, meters, Newtons, ...)
Angles are in degrees.

endheader
time	pelvis_tilt	pelvis_list	pelvis_rotation	pelvis_tx	pelvis_ty	pelvis_tz	hip_flexion_r	hip_adduction_r	hip_rotation_r	knee_angle_r	ankle_angle_r	subtalar_angle_r	mtp_angle_r	hip_flexion_l	hip_adduction_l	hip_rotation_l	knee_angle_l	ankle_angle_l	subtalar_angle_l	mtp_angle_l	lumbar_extension	lumbar_bending	lumbar_rotation	arm_flex_r	arm_add_r	arm_rot_r	elbow_flex_r	pro_sup_r	wrist_flex_r	wrist_dev_r	arm_flex_l	arm_add_l	arm_rot_l	elbow_flex_l	pro_sup_l	wrist_flex_l	wrist_dev_l
      0.45550000000000002000	     -3.51575182732415210000	     -3.09858474915877840000	     -1.46623593567137720000	      0.95216722206491389000	      1.04868294306586480000	     -0.30921420565055457000	     23.73983567538812200000	      8.28473063924165660000	      2.56634655255855870000	    -11.49188372634394300000	     -5.49383639540793120000	      0.00000000000000000000	      0.00000000000000000000	    -12.13112297286212800000	      2.10392966601319610000	     -0.21349286690166649000	    -44.87954853094396400000	    -17.52337922289904500000	      0.00000000000000000000	      0.00000000000000000000	     -3.76557779011149480000	      6.23354556693739960000	     -7.02383890379163580000	    -39.82009082161313500000	    -11.99320922874541000000	    -10.51890122905744300000	    112.13335236627863000000	     93.35071353563179700000	      0.00000000000000000000	      0.00000000000000000000	    -19.84608574058097100000	    -14.20501414538856900000	      5.47252337514432340000	    133.38488690929429000000	     97.66694572726916600000	      0.00000000000000000000	      0.00000000000000000000
      0.45650000000000002000	     -3.47668443391996010000	     -3.11417764164657560000	     -1.48618459429514950000	      0.95215608236903948000	      1.04820429835877320000	     -0.30920469354193703000	     23.67759248758958200000	      8.33665522564945330000	      2.64699913028873990000	    -11.64967008296122200000	     -5.49014478902435070000	     -0.00000000000000000012	     -0.00000000000000000106	    -11.97712463237051000000	      2.08302483126050180000	     -0.25611038347002962000	    -45.40998411800075700000	    -17.39143566763073100000	      0.00000000000000000016	      0.00000000000000000068	     -3.82636619362625610000	      6.27208509051444360000	     -6.95446245036288250000	    -39.73160034331338900000	    -12.03552482974760500000	    -10.48377263891610200000	    112.08876855746227000000	     93.29578829058171200000	     -0.00000000000000000018	      0.00000000000000000005	    -19.90018995936377900000	    -14.22979015507959500000	      5.46542757584770730000	    133.24977732516442000000	     97.63068745789492200000	      0.00000000000000000029	      0.00000000000000000055
      0.45750000000000002000	     -3.43739502907626540000	     -3.12916156831463790000	     -1.50635419824011760000	      0.95214464510528574000	      1.04771647488681130000	     -0.30919518334667317000	     23.61531372117294200000	      8.38856903626000690000	      2.73462294206730890000	    -11.81457736715975100000	     -5.47907161676968090000	     -0.00000000000000000171	     -0.00000000000000000732	    -11.82184364666675700000	      2.06235775046816230000	     -0.29960845409983594000	    -45.94063469096638400000	    -17.26024912562425600000	      0.00000000000000000037	      0.00000000000000000033	     -3.88729603009183310000	      6.30997646662272520000	     -6.88443199229853240000	    -39.64187078446637700000	    -12.07906964155413500000	    -10.44767382980594700000	    112.04344195234574000000	     93.24179615326309500000	     -0.00000000000000000043	     -0.00000000000000000130	    -19.95465942399507500000	    -14.25479941487492800000	      5.45769366520998740000	    133.11287390293242000000	     97.59174631249693700000	      0.00000000000000000138	      0.00000000000000000202
      0.45850000000000002000	     -3.39789805243515850000	     -3.14351791081085000000	     -1.52671384408985400000	      0.95213291051252580000	      1.04721943608394220000	     -0.30918565581116625000	     23.55301887326681900000	      8.44047616445082300000	      2.82898342683327190000	    -11.98655811444518800000	     -5.46036941850749270000	     -0.00000000000000000472	     -0.00000000000000001641	    -11.66529210697108400000	      2.04193062478831240000	     -0.34391748400857636000	    -46.47142375510506400000	    -17.12965290206094700000	      0.00000000000000000145	      0.00000000000000000049	     -3.94834113882596730000	      6.34718874111156510000	     -6.81377770300217730000	    -39.55090472191022900000	    -12.12382092655527400000	    -10.41061258056887200000	    111.99737918130239000000	     93.18878900467478800000	     -0.00000000000000000080	     -0.00000000000000000237	    -20.00950795145088500000	    -14.28005912905973100000	      5.44934087105148630000	    132.97421242934044000000	     97.55011206153288600000	      0.00000000000000000243	      0.00000000000000000363
